<?xml version="1.0" standalone="no"?>
<!DOCTYPE svg PUBLIC "-//W3C//DTD SVG 20010904//EN"
 "http://www.w3.org/TR/2001/REC-SVG-20010904/DTD/svg10.dtd">
<svg version="1.0" xmlns="http://www.w3.org/2000/svg"
 width="225.000000pt" height="225.000000pt" viewBox="0 0 225.000000 225.000000"
 preserveAspectRatio="xMidYMid meet">

<g transform="translate(0.000000,225.000000) scale(0.100000,-0.100000)"
fill="#000000" stroke="none">
<path d="M1133 2235 c-17 -7 -36 -22 -42 -34 -7 -12 -11 -108 -11 -261 l0
-242 29 -29 c40 -40 89 -40 133 0 l33 29 3 219 c4 248 -2 283 -51 313 -38 23
-51 24 -94 5z"/>
<path d="M420 1943 c-51 -19 -79 -78 -60 -129 13 -33 291 -318 332 -340 89
-47 182 41 137 129 -16 31 -299 316 -331 333 -28 14 -52 17 -78 7z"/>
<path d="M93 1202 c-29 -22 -42 -68 -31 -109 16 -61 26 -63 296 -63 l244 0 29
29 c40 41 40 91 0 132 l-29 29 -244 0 c-215 0 -246 -2 -265 -18z"/>
<path d="M745 781 c17 -4 40 -13 53 -20 12 -6 22 -9 22 -7 0 11 -60 36 -82 35
-19 -1 -18 -2 7 -8z"/>
<path d="M526 611 c-104 -104 -166 -174 -163 -182 4 -11 6 -11 6 1 1 9 77 91
169 183 93 92 166 167 163 167 -4 0 -82 -76 -175 -169z"/>
<path d="M830 694 c0 -14 -5 -35 -11 -47 -10 -21 -10 -21 5 -3 15 18 23 76 11
76 -3 0 -5 -12 -5 -26z"/>
<path d="M389 331 c13 -12 28 -21 34 -21 12 0 11 0 -28 24 l-30 17 24 -20z"/>
<path d="M496 325 c-11 -8 -15 -15 -9 -15 6 0 16 7 23 15 16 19 11 19 -14 0z"/>
</g>
</svg>
